<svg xmlns="http://www.w3.org/2000/svg" width="48" height="48" viewBox="0 0 48 48">
  <!-- Voice2Baby: a soft voice bubble with a baby face inside -->
  <path fill="#5F836B" d="M13 5h22a11 11 0 0 1 11 11v9a11 11 0 0 1-11 11h-8l-9 7v-7h-5A11 11 0 0 1 2 25v-9A11 11 0 0 1 13 5Z"/>
  <!-- baby hair curl -->
  <path fill="none" stroke="#fff" stroke-width="2.6" stroke-linecap="round" d="M22.5 12.2c.6-2 3.4-2 3.9 0"/>
  <!-- eyes -->
  <circle cx="18.5" cy="19.5" r="2.1" fill="#fff"/>
  <circle cx="29.5" cy="19.5" r="2.1" fill="#fff"/>
  <!-- smile -->
  <path fill="none" stroke="#fff" stroke-width="2.6" stroke-linecap="round" d="M18 25.5c1.8 3 10.2 3 12 0"/>
</svg>
